<svg width="199" height="50" viewBox="0 0 199 50" fill="none" xmlns="http://www.w3.org/2000/svg">
<path d="M77.4447 20.9456C76.9152 19.9703 76.1491 19.2319 75.146 18.7304C74.1708 18.2009 73.0144 17.9362 71.6769 17.9362C69.3643 17.9362 67.5111 18.7025 66.118 20.235C64.725 21.7397 64.0282 23.7598 64.0282 26.2954C64.0282 28.9983 64.7526 31.1159 66.2016 32.6484C67.6783 34.1531 69.6987 34.9054 72.262 34.9054C74.0175 34.9054 75.4941 34.4596 76.6924 33.5679C77.9183 32.6763 78.8102 31.3945 79.3673 29.7227H70.2976V24.4564H85.8457V31.102C85.3162 32.8853 84.4109 34.5432 83.129 36.0757C81.8751 37.6082 80.2731 38.8481 78.3224 39.7955C76.3718 40.743 74.1708 41.2166 71.7187 41.2166C68.821 41.2166 66.2296 40.5896 63.9446 39.3358C61.6877 38.054 59.9184 36.2847 58.6366 34.0277C57.3827 31.7707 56.7557 29.1933 56.7557 26.2954C56.7557 23.3976 57.3827 20.8202 58.6366 18.5632C59.9184 16.2783 61.6877 14.509 63.9446 13.2551C66.2016 11.9733 68.7792 11.3325 71.6769 11.3325C75.1877 11.3325 78.1415 12.1823 80.5376 13.882C82.9618 15.5818 84.5638 17.9362 85.3442 20.9456H77.4447ZM98.6234 21.5725C99.4594 20.2907 100.504 19.2876 101.758 18.5632C103.012 17.8109 104.405 17.4347 105.938 17.4347V24.9998H103.973C102.19 24.9998 100.853 25.3898 99.9609 26.17C99.0694 26.9224 98.6234 28.2598 98.6234 30.1825V41.0076H91.4763V17.6855H98.6234V21.5725ZM121.642 41.342C119.357 41.342 117.295 40.8542 115.456 39.8791C113.645 38.9039 112.21 37.5107 111.151 35.6995C110.12 33.8884 109.605 31.7707 109.605 29.3465C109.605 26.9503 110.134 24.8465 111.193 23.0353C112.252 21.1963 113.701 19.7892 115.54 18.814C117.379 17.8387 119.441 17.3511 121.726 17.3511C124.011 17.3511 126.072 17.8387 127.911 18.814C129.75 19.7892 131.199 21.1963 132.258 23.0353C133.317 24.8465 133.846 26.9503 133.846 29.3465C133.846 31.7428 133.303 33.8605 132.216 35.6995C131.158 37.5107 129.695 38.9039 127.828 39.8791C125.989 40.8542 123.927 41.342 121.642 41.342ZM121.642 35.1562C123.007 35.1562 124.164 34.6546 125.111 33.6515C126.086 32.6484 126.574 31.2134 126.574 29.3465C126.574 27.4796 126.1 26.0447 125.153 25.0416C124.233 24.0385 123.091 23.5369 121.726 23.5369C120.333 23.5369 119.176 24.0385 118.257 25.0416C117.337 26.0168 116.877 27.4518 116.877 29.3465C116.877 31.2134 117.323 32.6484 118.215 33.6515C119.134 34.6546 120.277 35.1562 121.642 35.1562ZM172.788 17.6855L166.477 41.0076H158.578L154.9 25.8775L151.096 41.0076H143.239L136.886 17.6855H144.033L147.335 34.3621L151.263 17.6855H158.829L162.799 34.2785L166.059 17.6855H172.788ZM184.333 10.0786V41.0076H177.186V10.0786H184.333ZM194.779 15.2613C193.525 15.2613 192.494 14.8991 191.686 14.1746C190.906 13.4223 190.515 12.5028 190.515 11.4161C190.515 10.3015 190.906 9.38199 191.686 8.65754C192.494 7.90522 193.525 7.52905 194.779 7.52905C196.005 7.52905 197.008 7.90522 197.788 8.65754C198.596 9.38199 199 10.3015 199 11.4161C199 12.5028 198.596 13.4223 197.788 14.1746C197.008 14.8991 196.005 15.2613 194.779 15.2613ZM198.331 17.6855V41.0076H191.184V17.6855H198.331Z" fill="#FF9D9D"/>
<path fill-rule="evenodd" clip-rule="evenodd" d="M24.6438 49.2877C38.2543 49.2877 49.2877 38.2543 49.2877 24.6438C49.2877 11.0334 38.2543 0 24.6438 0C11.0334 0 0 11.0334 0 24.6438C0 37.5518 9.92386 48.1418 22.5581 49.2005C21.0745 49.001 19.7135 48.4585 18.8964 47.5894C18.38 46.9361 18.0962 45.5753 18.0962 45.5753C17.7054 43.8743 17.2666 42.3168 16.7873 40.9269C13.9556 41.1114 8.48533 39.9538 9.80296 35.781C10.4776 32.8036 17.176 29.2774 20.8308 27.8965C19.5798 26.5612 18.749 25.0403 18.7032 23.1805C14.1412 21.1219 12.5397 16.2548 15.9457 12.7397C16.2623 12.412 16.7808 12.4064 17.1039 12.7286C17.4271 13.0508 17.4325 13.5785 17.1148 13.9073C14.7132 16.367 15.6662 19.5521 18.689 21.2963C18.6901 20.8264 18.6945 20.3042 18.701 19.7265C18.6934 19.241 18.9291 18.94 19.4084 18.8211C20.3221 18.6911 21.1048 18.47 21.7445 18.1645C21.8853 16.6958 22.7783 13.4063 24.2957 13.5263C25.8404 13.3919 26.7629 16.8714 26.86 18.309C27.9165 18.7236 28.9898 18.8099 29.0445 18.8143L29.0466 18.8144C29.4756 18.8445 29.8086 19.2077 29.8086 19.6454V21.3374C33.4459 19.3055 33.8946 15.4016 30.4308 13.0397C28.7999 11.8965 26.6176 11.2666 24.2837 11.2666C23.1506 11.2666 22.0491 11.4155 21.0098 11.7087C20.5743 11.8321 20.1234 11.5721 20.0022 11.1288C19.8811 10.6856 20.1365 10.2256 20.5721 10.1034C24.0555 9.07579 28.5564 9.64016 31.3609 11.6677C36.163 14.9417 35.0965 20.8419 29.8096 23.2072C29.8915 25.0403 28.8206 26.7889 27.5936 28.0465C31.3106 29.5307 38.9369 33.458 39.0177 36.7131C39.4917 40.7325 33.9109 41.1103 31.2943 41.046C30.6699 42.4801 30.1142 44.0399 29.635 45.6995C29.3009 46.8059 28.754 47.6218 28.754 47.6218C27.7331 48.684 25.9695 49.2289 24.1678 49.2833C24.3262 49.2861 24.4848 49.2877 24.6438 49.2877ZM25.2323 18.5623C25.2323 17.7723 24.7138 15.9382 24.299 15.3271C23.9158 15.9082 23.3602 17.6479 23.3602 18.5623C23.3602 19.7854 25.2323 19.7854 25.2323 18.5623ZM23.5861 47.5981C25.752 47.6517 27.5892 46.9617 27.8534 45.983C28.3152 44.2722 28.8763 42.5834 29.5531 40.9482C26.8469 40.7116 24.3197 40.1249 22.7456 39.3716C21.1594 40.1005 19.6966 40.5082 18.451 40.7258C18.9794 42.3101 19.4575 44.0876 19.8756 46.0252C20.0601 46.884 21.6212 47.5449 23.5861 47.5981ZM28.6525 35.2988C27.3043 36.5798 25.9648 37.5763 24.6767 38.3506C26.4353 38.9194 37.8922 41.1469 37.3911 36.9119C37.0855 34.3245 30.1011 30.7483 25.7694 29.1008C25.1799 28.8775 25.0566 28.0565 25.5533 27.6632C26.7072 26.7489 28.0816 25.1425 28.1711 23.6182V20.3787C27.7169 20.302 27.1078 20.1687 26.4801 19.9432C25.4616 21.5952 23.0021 21.5429 22.0545 19.8443C21.536 20.0554 20.9607 20.2265 20.333 20.352C20.3338 20.7835 20.3289 21.1757 20.3244 21.5363C20.2906 24.253 20.2791 25.1768 22.8744 27.5777C23.3634 28.0121 23.1484 28.7975 22.6091 28.9919C19.8025 30.0018 12.3094 33.2836 11.3618 36.2909C10.7025 38.3806 13.579 39.1128 14.961 39.2494C19.237 39.6671 23.525 37.5796 26.7093 34.8289C23.7051 34.2223 19.797 35.2489 18.0809 36.4476C17.2382 37.0297 16.2666 35.6932 17.1574 35.0722C21.2249 32.2393 27.0205 32.5203 31.3194 34.569C31.7288 34.7645 31.9056 35.26 31.7135 35.6765C31.5224 36.0943 31.0345 36.2732 30.6251 36.0776C29.9701 35.7666 29.3129 35.5088 28.6525 35.2988ZM34.868 11.2903C36.368 11.9909 36.4693 13.3639 36.3964 14.1191C36.3846 14.2475 36.4188 14.376 36.4932 14.4822C36.5676 14.5885 36.6774 14.666 36.8038 14.7012C36.9302 14.7365 37.0652 14.7273 37.1854 14.6753C37.3056 14.6233 37.4035 14.5317 37.4623 14.4163L37.4628 14.4154C37.6026 14.1372 37.8622 13.6205 38.3246 13.2511C38.8499 12.8313 39.5189 12.6797 40.3698 12.7872C40.4959 12.8033 40.6241 12.7741 40.7302 12.705C40.8362 12.6359 40.9135 12.5315 40.9474 12.411C40.9813 12.2905 40.9695 12.162 40.9147 12.0492C40.8599 11.9364 40.7652 11.8468 40.6485 11.7969C39.056 11.1138 38.922 10.0096 39.0145 8.91732C39.0244 8.78559 38.986 8.65476 38.9064 8.5483C38.8267 8.44184 38.711 8.36676 38.58 8.33656C38.4554 8.3071 38.3244 8.32059 38.2087 8.37473C38.0931 8.42886 37.9999 8.52042 37.9449 8.63398C37.6083 9.32476 36.7965 10.4605 35.1454 10.3051C35.0215 10.2932 34.8974 10.3246 34.7947 10.3938C34.6921 10.4629 34.6177 10.5654 34.5845 10.6832C34.5513 10.8009 34.5615 10.9264 34.6134 11.0374C34.6652 11.1485 34.7555 11.2381 34.868 11.2903ZM38.0499 10.2236C38.1698 10.8455 38.4787 11.4173 38.9361 11.8637C38.3112 12.0132 37.7471 12.3449 37.318 12.8152C37.1827 12.2047 36.8807 11.642 36.4444 11.1872C37.0586 11.0147 37.6136 10.6816 38.0499 10.2236ZM8.9629 27.102C9.01397 26.5734 8.94299 25.6123 7.89301 25.1219C7.81427 25.0853 7.75106 25.0226 7.71478 24.9449C7.67851 24.8671 7.67137 24.7793 7.69459 24.6969C7.71782 24.6145 7.76991 24.5427 7.84175 24.4943C7.91359 24.4459 8.00049 24.4239 8.08724 24.4323C9.24298 24.541 9.81128 23.746 10.0468 23.2625C10.0854 23.183 10.1506 23.1189 10.2315 23.081C10.3125 23.0431 10.4042 23.0336 10.4915 23.0543C10.5831 23.0754 10.6642 23.128 10.7199 23.2025C10.7756 23.277 10.8025 23.3686 10.7956 23.4608C10.7308 24.2254 10.8246 24.9984 11.9394 25.4766C12.0212 25.5115 12.0874 25.5742 12.1258 25.6531C12.1642 25.7321 12.1723 25.822 12.1485 25.9064C12.1248 25.9907 12.0707 26.0638 11.9965 26.1122C11.9222 26.1606 11.8326 26.181 11.7441 26.1697C11.1487 26.0944 10.6804 26.2006 10.3126 26.4945C9.98892 26.753 9.80718 27.1147 9.70936 27.3095L9.70904 27.3101C9.66792 27.3909 9.59935 27.455 9.5152 27.4914C9.43102 27.5278 9.33654 27.5342 9.2481 27.5095C9.15962 27.4849 9.08273 27.4306 9.03065 27.3562C8.97856 27.2818 8.95462 27.1919 8.9629 27.102ZM10.7407 25.5232C10.4205 25.2108 10.2043 24.8105 10.1203 24.3752C9.81491 24.6958 9.42649 24.9289 8.9965 25.0497C9.30192 25.3681 9.51331 25.762 9.60802 26.1893C9.9084 25.8601 10.3033 25.6279 10.7407 25.5232Z" fill="#FF9D9D"/>
</svg>
